<svg width="27" height="27" viewBox="0 0 27 27" fill="none" xmlns="http://www.w3.org/2000/svg">
<path fill-rule="evenodd" clip-rule="evenodd" d="M0 13.5C0 9.91958 1.42232 6.4858 3.95406 3.95406C6.4858 1.42232 9.91958 0 13.5 0C17.0804 0 20.5142 1.42232 23.0459 3.95406C25.5777 6.4858 27 9.91958 27 13.5C27 17.0804 25.5777 20.5142 23.0459 23.0459C20.5142 25.5777 17.0804 27 13.5 27C9.91958 27 6.4858 25.5777 3.95406 23.0459C1.42232 20.5142 0 17.0804 0 13.5ZM13.5 6.3C13.6711 6.29994 13.8387 6.34868 13.9832 6.4405C14.1276 6.53232 14.2428 6.66341 14.3154 6.8184L16.056 10.53L19.935 11.124C20.0983 11.1492 20.2516 11.2189 20.378 11.3254C20.5043 11.432 20.5989 11.5712 20.6513 11.728C20.7038 11.8847 20.712 12.0529 20.6752 12.214C20.6384 12.3751 20.5579 12.523 20.4426 12.6414L17.6112 15.5448L18.2826 19.656C18.3099 19.8229 18.2897 19.994 18.2242 20.1499C18.1587 20.3058 18.0507 20.4401 17.9124 20.5374C17.7742 20.6347 17.6113 20.6911 17.4424 20.7001C17.2736 20.7091 17.1056 20.6704 16.9578 20.5884L13.5 18.6768L10.0422 20.5884C9.89421 20.6706 9.72604 20.7094 9.55701 20.7003C9.38798 20.6912 9.22493 20.6347 9.08659 20.5371C8.94825 20.4396 8.84022 20.305 8.77492 20.1488C8.70961 19.9926 8.68968 19.8212 8.7174 19.6542L9.3888 15.5448L6.5556 12.6414C6.43975 12.5229 6.35885 12.3748 6.32183 12.2133C6.2848 12.0517 6.29308 11.8831 6.34576 11.726C6.39844 11.5689 6.49347 11.4294 6.62038 11.3229C6.74729 11.2163 6.90115 11.1469 7.065 11.1222L10.9422 10.53L12.6846 6.8184C12.7572 6.66341 12.8724 6.53232 13.0168 6.4405C13.1613 6.34868 13.3289 6.29994 13.5 6.3Z" fill="#6B7280"/>
</svg>
