<svg width="24" height="24" viewBox="0 0 24 24" fill="none" xmlns="http://www.w3.org/2000/svg">
<path d="M16.3333 8C14.6765 8 13.3333 6.65685 13.3333 5V3C13.3333 1.34315 14.6765 0 16.3333 0H21C22.6569 0 24 1.34315 24 3V5C24 6.65685 22.6569 8 21 8H16.3333ZM3 13.3333C1.34315 13.3333 0 11.9902 0 10.3333V3C0 1.34314 1.34315 0 3 0H7.66666C9.32352 0 10.6667 1.34315 10.6667 3V10.3333C10.6667 11.9902 9.32352 13.3333 7.66667 13.3333H3ZM16.3333 24C14.6765 24 13.3333 22.6569 13.3333 21V13.6667C13.3333 12.0098 14.6765 10.6667 16.3333 10.6667H21C22.6569 10.6667 24 12.0098 24 13.6667V21C24 22.6569 22.6569 24 21 24H16.3333ZM3 24C1.34315 24 0 22.6569 0 21V19C0 17.3431 1.34315 16 3 16H7.66666C9.32352 16 10.6667 17.3431 10.6667 19V21C10.6667 22.6569 9.32352 24 7.66667 24H3Z" fill="#6B7280"/>
</svg>
