<svg width="132" height="38" viewBox="0 0 132 38" fill="none" xmlns="http://www.w3.org/2000/svg">
<circle cx="19" cy="19" r="19" fill="#0053AD"/>
<path d="M15.3512 15.8209L14.3472 15.2412L10.8777 21.2506L11.8817 21.8303L15.3512 15.8209Z" fill="white"/>
<path d="M19.5945 27.5183C18.2669 29.7517 15.379 30.5123 13.1231 29.2098C10.8671 27.9073 10.0818 25.0261 11.3522 22.7596L10.3481 22.1799C8.7585 24.9993 9.73442 28.5923 12.5433 30.214C15.3521 31.8357 18.9518 30.8844 20.5986 28.098L19.5945 27.5183Z" fill="white"/>
<path d="M26.2208 16.038L26.4447 15.6503C27.7565 13.3782 26.9769 10.4578 24.7018 9.14429C22.4268 7.83078 19.5097 8.61263 18.196 10.888L14.2219 17.7712L13.2179 17.1915L17.1919 10.3083C18.8248 7.47997 22.4518 6.51055 25.2766 8.14142C28.1013 9.7723 29.0735 13.4013 27.4424 16.2264L27.2185 16.6141L26.2145 16.0344L26.2208 16.038Z" fill="white"/>
<path d="M26.2196 16.0401L26.2123 16.0529C24.9004 18.325 21.9815 19.11 19.7065 17.7965C18.3688 17.0242 17.5478 15.6943 17.3654 14.2713L16.5324 15.714C16.9928 16.9713 17.8779 18.0798 19.1267 18.8007C21.9546 20.4335 25.5803 19.459 27.2114 16.6339L27.2187 16.6212L26.2146 16.0415L26.2196 16.0401Z" fill="white"/>
<path d="M17.9064 9.90058L17.3267 10.9048L25.3815 15.5552L25.9613 14.551L17.9064 9.90058Z" fill="white"/>
<path d="M21.125 27.1815L27.2292 16.6088L27.1116 16.5409L26.2251 16.0291L20.1209 26.6018L21.125 27.1815Z" fill="white"/>
<path d="M46.7 19C46.7 17.6267 47.0067 16.4 47.62 15.32C48.2467 14.2267 49.0933 13.38 50.16 12.78C51.24 12.1667 52.4467 11.86 53.78 11.86C55.34 11.86 56.7067 12.26 57.88 13.06C59.0533 13.86 59.8733 14.9667 60.34 16.38H57.12C56.8 15.7133 56.3467 15.2133 55.76 14.88C55.1867 14.5467 54.52 14.38 53.76 14.38C52.9467 14.38 52.22 14.5733 51.58 14.96C50.9533 15.3333 50.46 15.8667 50.1 16.56C49.7533 17.2533 49.58 18.0667 49.58 19C49.58 19.92 49.7533 20.7333 50.1 21.44C50.46 22.1333 50.9533 22.6733 51.58 23.06C52.22 23.4333 52.9467 23.62 53.76 23.62C54.52 23.62 55.1867 23.4533 55.76 23.12C56.3467 22.7733 56.8 22.2667 57.12 21.6H60.34C59.8733 23.0267 59.0533 24.14 57.88 24.94C56.72 25.7267 55.3533 26.12 53.78 26.12C52.4467 26.12 51.24 25.82 50.16 25.22C49.0933 24.6067 48.2467 23.76 47.62 22.68C47.0067 21.6 46.7 20.3733 46.7 19ZM73.1916 14.92V26H70.3716V24.6C70.0116 25.08 69.5382 25.46 68.9516 25.74C68.3782 26.0067 67.7516 26.14 67.0716 26.14C66.2049 26.14 65.4382 25.96 64.7716 25.6C64.1049 25.2267 63.5782 24.6867 63.1916 23.98C62.8182 23.26 62.6316 22.4067 62.6316 21.42V14.92H65.4316V21.02C65.4316 21.9 65.6516 22.58 66.0916 23.06C66.5316 23.5267 67.1316 23.76 67.8916 23.76C68.6649 23.76 69.2716 23.5267 69.7116 23.06C70.1516 22.58 70.3716 21.9 70.3716 21.02V14.92H73.1916ZM78.7542 16.64C79.1142 16.0533 79.5809 15.5933 80.1542 15.26C80.7409 14.9267 81.4076 14.76 82.1542 14.76V17.7H81.4142C80.5342 17.7 79.8676 17.9067 79.4142 18.32C78.9742 18.7333 78.7542 19.4533 78.7542 20.48V26H75.9542V14.92H78.7542V16.64ZM94.3402 20.22C94.3402 20.62 94.3135 20.98 94.2602 21.3H86.1602C86.2268 22.1 86.5068 22.7267 87.0002 23.18C87.4935 23.6333 88.1002 23.86 88.8202 23.86C89.8602 23.86 90.6002 23.4133 91.0402 22.52H94.0602C93.7402 23.5867 93.1268 24.4667 92.2202 25.16C91.3135 25.84 90.2002 26.18 88.8802 26.18C87.8135 26.18 86.8535 25.9467 86.0002 25.48C85.1602 25 84.5002 24.3267 84.0202 23.46C83.5535 22.5933 83.3202 21.5933 83.3202 20.46C83.3202 19.3133 83.5535 18.3067 84.0202 17.44C84.4868 16.5733 85.1402 15.9067 85.9802 15.44C86.8202 14.9733 87.7868 14.74 88.8802 14.74C89.9335 14.74 90.8735 14.9667 91.7002 15.42C92.5402 15.8733 93.1868 16.52 93.6402 17.36C94.1068 18.1867 94.3402 19.14 94.3402 20.22ZM91.4402 19.42C91.4268 18.7 91.1668 18.1267 90.6602 17.7C90.1535 17.26 89.5335 17.04 88.8002 17.04C88.1068 17.04 87.5202 17.2533 87.0402 17.68C86.5735 18.0933 86.2868 18.6733 86.1802 19.42H91.4402ZM97.8039 13.6C97.3106 13.6 96.8972 13.4467 96.5639 13.14C96.2439 12.82 96.0839 12.4267 96.0839 11.96C96.0839 11.4933 96.2439 11.1067 96.5639 10.8C96.8972 10.48 97.3106 10.32 97.8039 10.32C98.2972 10.32 98.7039 10.48 99.0239 10.8C99.3572 11.1067 99.5239 11.4933 99.5239 11.96C99.5239 12.4267 99.3572 12.82 99.0239 13.14C98.7039 13.4467 98.2972 13.6 97.8039 13.6ZM99.1839 14.92V26H96.3839V14.92H99.1839ZM107.03 17.22H105.09V26H102.25V17.22H100.99V14.92H102.25V14.36C102.25 13 102.637 12 103.41 11.36C104.184 10.72 105.35 10.42 106.91 10.46V12.82C106.23 12.8067 105.757 12.92 105.49 13.16C105.224 13.4 105.09 13.8333 105.09 14.46V14.92H107.03V17.22ZM119.445 14.92L112.585 31.24H109.605L112.005 25.72L107.565 14.92H110.705L113.565 22.66L116.465 14.92H119.445Z" fill="#36404D"/>
</svg>
