<svg width="27" height="27" viewBox="0 0 27 27" fill="none" xmlns="http://www.w3.org/2000/svg">
<path d="M24.525 7.2L21.4875 3.15C21.06 2.5875 20.3962 2.25 19.6875 2.25H7.3125C6.60375 2.25 5.92875 2.5875 5.5125 3.15L2.475 7.2C2.32875 7.39125 2.25 7.6275 2.25 7.875V9C2.25 10.1363 2.68875 11.1488 3.375 11.9475V22.5C3.375 23.7375 4.3875 24.75 5.625 24.75H21.375C22.6125 24.75 23.625 23.7375 23.625 22.5V11.9475C24.3113 11.16 24.75 10.1363 24.75 9V7.875C24.75 7.6275 24.6712 7.39125 24.525 7.2ZM11.25 8.01L12.1275 4.5H14.8725L15.75 8.01V9C15.75 10.2375 14.7375 11.25 13.5 11.25C12.2625 11.25 11.25 10.2375 11.25 9V8.01ZM9.03375 7.59375C9.01125 7.68375 9 7.77375 9 7.86375V8.98875C9 10.2262 7.9875 11.2387 6.75 11.2387C5.5125 11.2387 4.5 10.2262 4.5 8.98875V8.235L7.3125 4.48875H9.81L9.03375 7.59375ZM18 19.1138H14.625V22.4888H12.375V19.1138H9V16.8637H12.375V13.4887H14.625V16.8637H18V19.1138ZM22.5 8.98875C22.5 10.2262 21.4875 11.2387 20.25 11.2387C19.0125 11.2387 18 10.2262 18 8.98875V7.86375C18 7.77375 18 7.68375 17.9663 7.59375L17.19 4.48875H19.6875L22.5 8.235V8.98875Z" fill="#6B7280"/>
</svg>
