<svg width="135" height="135" viewBox="0 0 135 135" fill="none" xmlns="http://www.w3.org/2000/svg">
<circle cx="67.3569" cy="67.3569" r="67.3569" fill="#0053AD"/>
<path d="M54.4219 56.0868L50.8623 54.0317L38.5626 75.3355L42.1221 77.3906L54.4219 56.0868Z" fill="white"/>
<path d="M69.4649 97.5553C64.7584 105.473 54.5206 108.169 46.5229 103.552C38.5252 98.9344 35.7414 88.72 40.2451 80.6852L36.6855 78.6301C31.0501 88.6252 34.5098 101.363 44.4675 107.112C54.4252 112.861 67.1862 109.488 73.0244 99.6104L69.4649 97.5553Z" fill="white"/>
<path d="M92.9555 56.8565L93.7491 55.4821C98.3997 47.427 95.6359 37.074 87.5706 32.4175C79.5053 27.761 69.1639 30.5327 64.5067 38.599L50.4183 63.0009L46.8588 60.9458L60.9472 36.5439C66.7361 26.5173 79.5941 23.0806 89.6082 28.8622C99.6222 34.6438 103.068 47.5088 97.2861 57.5242L96.4926 58.8986L92.933 56.8435L92.9555 56.8565Z" fill="white"/>
<path d="M92.9514 56.864L92.9254 56.9091C88.2747 64.9642 77.9268 67.7471 69.8615 63.0906C65.1192 60.3527 62.209 55.6381 61.5622 50.5931L58.6092 55.7078C60.2412 60.165 63.3793 64.0948 67.8062 66.6506C77.8315 72.4387 90.6848 68.9843 96.4671 58.9689L96.4932 58.9239L92.9336 56.8688L92.9514 56.864Z" fill="white"/>
<path d="M63.4804 35.0987L61.425 38.6587L89.9803 55.1451L92.0356 51.585L63.4804 35.0987Z" fill="white"/>
<path d="M74.8905 96.3614L96.5305 58.8798L96.1137 58.6392L92.9709 56.8247L71.331 94.3062L74.8905 96.3614Z" fill="white"/>
</svg>
