<svg width="24" height="25" viewBox="0 0 24 25" fill="none" xmlns="http://www.w3.org/2000/svg">
<path fill-rule="evenodd" clip-rule="evenodd" d="M14.2475 0.19C13.7801 -5.58794e-08 13.1865 0 12.0004 0C10.8143 0 10.2218 -5.58794e-08 9.75321 0.19C9.44486 0.314682 9.16447 0.498477 8.92817 0.730808C8.69188 0.96314 8.50435 1.23942 8.37637 1.54375C8.25763 1.8225 8.21216 2.14875 8.19321 2.6225C8.1842 2.96563 8.08719 3.30085 7.91131 3.59669C7.73543 3.89253 7.48645 4.13928 7.18774 4.31375C6.883 4.48138 6.54043 4.57018 6.19178 4.57193C5.84313 4.57368 5.49967 4.48831 5.19322 4.32375C4.76628 4.10125 4.4568 3.97875 4.15112 3.93875C3.48239 3.8524 2.8062 4.03024 2.26902 4.43375C1.86734 4.73625 1.5705 5.24125 0.978079 6.25C0.384397 7.25875 0.0888193 7.7625 0.0218722 8.25625C-0.0665486 8.91375 0.115346 9.57875 0.527134 10.105C0.71408 10.345 0.97808 10.5463 1.38608 10.7987C1.9886 11.17 2.37513 11.8025 2.37513 12.5C2.37513 13.1975 1.9886 13.83 1.38734 14.2C0.97808 14.4537 0.71408 14.655 0.52587 14.895C0.323218 15.1553 0.174397 15.4525 0.087917 15.7697C0.00143685 16.087 -0.021006 16.4179 0.0218722 16.7438C0.0888193 17.2362 0.384397 17.7412 0.978079 18.75C1.57176 19.7588 1.86734 20.2625 2.26902 20.5662C2.8046 20.97 3.48165 21.1475 4.15112 21.0613C4.4568 21.0213 4.76628 20.8988 5.19322 20.6763C5.49982 20.5115 5.84351 20.426 6.19241 20.4277C6.54131 20.4295 6.88411 20.5184 7.18901 20.6862C7.8029 21.0362 8.16669 21.68 8.19321 22.3775C8.21216 22.8525 8.25763 23.1775 8.37637 23.4562C8.63405 24.0687 9.12921 24.5562 9.75321 24.81C10.2206 25 10.8143 25 12.0004 25C13.1865 25 13.7801 25 14.2475 24.81C14.5559 24.6853 14.8363 24.5015 15.0725 24.2692C15.3088 24.0369 15.4964 23.7606 15.6243 23.4562C15.7431 23.1775 15.7886 22.8525 15.8075 22.3775C15.8328 21.68 16.1978 21.035 16.813 20.6862C17.1177 20.5186 17.4603 20.4298 17.8089 20.4281C18.1576 20.4263 18.5011 20.5117 18.8075 20.6763C19.2344 20.8988 19.5439 21.0213 19.8496 21.0613C20.5191 21.1488 21.1961 20.97 21.7317 20.5662C22.1334 20.2637 22.4302 19.7588 23.0226 18.75C23.6163 17.7412 23.9119 17.2375 23.9788 16.7438C24.0215 16.4179 23.9989 16.0868 23.9122 15.7696C23.8255 15.4524 23.6765 15.1552 23.4736 14.895C23.2866 14.655 23.0226 14.4537 22.6146 14.2013C22.0121 13.83 21.6256 13.1975 21.6256 12.5C21.6256 11.8025 22.0121 11.17 22.6134 10.8C23.0226 10.5463 23.2866 10.345 23.4748 10.105C23.6775 9.84474 23.8263 9.54749 23.9128 9.23027C23.9993 8.91305 24.0217 8.58206 23.9788 8.25625C23.9119 7.76375 23.6163 7.25875 23.0226 6.25C22.429 5.24125 22.1334 4.7375 21.7317 4.43375C21.1945 4.03024 20.5183 3.8524 19.8496 3.93875C19.5439 3.97875 19.2344 4.10125 18.8075 4.32375C18.5009 4.48854 18.1572 4.57402 17.8083 4.57227C17.4594 4.57052 17.1166 4.4816 16.8117 4.31375C16.5132 4.13913 16.2645 3.89232 16.0889 3.59648C15.9132 3.30065 15.8164 2.96551 15.8075 2.6225C15.7886 2.1475 15.7431 1.8225 15.6243 1.54375C15.4964 1.23942 15.3088 0.96314 15.0725 0.730808C14.8363 0.498477 14.5559 0.314682 14.2475 0.19ZM12.0004 16.25C14.1098 16.25 15.8189 14.5712 15.8189 12.5C15.8189 10.4288 14.1086 8.75 12.0004 8.75C9.89215 8.75 8.18185 10.4288 8.18185 12.5C8.18185 14.5712 9.89215 16.25 12.0004 16.25Z" fill="#6B7280"/>
</svg>
