<svg width="32" height="38" viewBox="0 0 32 38" fill="none" xmlns="http://www.w3.org/2000/svg">
<path d="M10.742 14.3896L9.38389 13.6055L4.69109 21.7336L6.04919 22.5177L10.742 14.3896Z" fill="#07A7AD"/>
<path d="M16.4783 30.2109C14.6826 33.2318 10.7765 34.2605 7.72509 32.4988C4.67367 30.737 3.61155 26.8399 5.32988 23.7743L3.97178 22.9902C1.82164 26.8037 3.14166 31.6636 6.94089 33.8571C10.7401 36.0505 15.6089 34.7638 17.8364 30.995L16.4783 30.2109Z" fill="#1856A7"/>
<path d="M25.4432 14.6832L25.746 14.1588C27.5203 11.0855 26.4658 7.13546 23.3886 5.35883C20.3114 3.5822 16.3658 4.63971 14.5889 7.71733L9.21369 17.0275L7.85559 16.2434L13.2308 6.93323C15.4395 3.1077 20.3453 1.79648 24.1661 4.00237C27.9868 6.20827 29.3016 11.1167 27.0955 14.938L26.7927 15.4624L25.4346 14.6783L25.4432 14.6832Z" fill="#07A7AD"/>
<path d="M25.4408 14.6883L25.4309 14.7054C23.6565 17.7788 19.7084 18.8406 16.6312 17.0639C14.8218 16.0193 13.7115 14.2205 13.4647 12.2957L12.338 14.2471C12.9607 15.9477 14.158 17.4471 15.847 18.4222C19.672 20.6306 24.576 19.3126 26.7822 15.4914L26.7921 15.4742L25.434 14.6901L25.4408 14.6883Z" fill="#1856A7"/>
<path d="M14.1957 6.38391L13.4115 7.74219L24.3063 14.0323L25.0905 12.6741L14.1957 6.38391Z" fill="#07A7AD"/>
<path d="M18.5519 29.7566L26.8084 15.456L26.6494 15.3642L25.4503 14.6719L17.1938 28.9725L18.5519 29.7566Z" fill="#1856A7"/>
</svg>
