<svg width="27" height="27" viewBox="0 0 27 27" fill="none" xmlns="http://www.w3.org/2000/svg">
<path d="M18 19.125V21.375H2.25V19.125C2.25 19.125 2.25 14.625 10.125 14.625C18 14.625 18 19.125 18 19.125ZM14.0625 8.43754C14.0625 7.65878 13.8316 6.8975 13.3989 6.24998C12.9663 5.60247 12.3513 5.09779 11.6318 4.79977C10.9123 4.50175 10.1206 4.42377 9.35683 4.5757C8.59303 4.72763 7.89144 5.10264 7.34077 5.65331C6.7901 6.20398 6.41509 6.90557 6.26316 7.66937C6.11123 8.43317 6.1892 9.22487 6.48722 9.94436C6.78524 10.6638 7.28992 11.2788 7.93744 11.7115C8.58496 12.1441 9.34624 12.375 10.125 12.375C11.1693 12.375 12.1708 11.9602 12.9092 11.2218C13.6477 10.4833 14.0625 9.48183 14.0625 8.43754ZM17.9325 14.625C18.6241 15.1603 19.19 15.8405 19.5904 16.618C19.9908 17.3954 20.2159 18.2512 20.25 19.125V21.375H24.75V19.125C24.75 19.125 24.75 15.0413 17.9325 14.625ZM16.875 4.50004C16.1008 4.49644 15.3436 4.72789 14.7037 5.16379C15.3871 6.11862 15.7546 7.26336 15.7546 8.43754C15.7546 9.61172 15.3871 10.7565 14.7037 11.7113C15.3436 12.1472 16.1008 12.3786 16.875 12.375C17.9193 12.375 18.9208 11.9602 19.6592 11.2218C20.3977 10.4833 20.8125 9.48183 20.8125 8.43754C20.8125 7.39325 20.3977 6.39173 19.6592 5.65331C18.9208 4.91488 17.9193 4.50004 16.875 4.50004Z" fill="#6B7280"/>
</svg>
