<svg width="24" height="24" viewBox="0 0 24 24" fill="none" xmlns="http://www.w3.org/2000/svg">
<path fill-rule="evenodd" clip-rule="evenodd" d="M21.7498 12L22.3723 11.688V11.685L22.3678 11.6805L22.3588 11.6625L22.3273 11.6025L22.2073 11.3865C22.0609 11.1339 21.9053 10.8868 21.7408 10.6455C21.192 9.83995 20.5611 9.09345 19.8583 8.41802C18.1693 6.79802 15.5698 5.14502 11.9998 5.14502C8.43283 5.14502 5.83183 6.79652 4.14283 8.41802C3.44002 9.09345 2.80915 9.83995 2.26033 10.6455C2.03764 10.9741 1.83138 11.3135 1.64233 11.6625L1.63333 11.6805L1.63033 11.685V11.6865C1.63033 11.6865 1.62883 11.688 2.25133 12L1.62883 11.6865C1.5807 11.7838 1.55566 11.8908 1.55566 11.9993C1.55566 12.1078 1.5807 12.2148 1.62883 12.312L1.62733 12.315L1.63183 12.3195L1.64083 12.3375C1.6876 12.4312 1.73763 12.5233 1.79083 12.6135C2.43673 13.7046 3.22685 14.7036 4.13983 15.5835C5.83033 17.2035 8.42983 18.8535 11.9998 18.8535C15.5683 18.8535 18.1693 17.2035 19.8598 15.582C20.5613 14.9058 21.1916 14.1594 21.7408 13.3545C21.9512 13.0448 22.1469 12.7255 22.3273 12.3975L22.3588 12.3375L22.3678 12.3195L22.3708 12.315V12.3135C22.3708 12.3135 22.3723 12.312 21.7498 12ZM21.7498 12L22.3723 12.3135C22.4205 12.2163 22.4455 12.1093 22.4455 12.0008C22.4455 11.8923 22.4205 11.7853 22.3723 11.688L21.7498 12ZM11.9098 9.69602C11.2988 9.69602 10.7127 9.93876 10.2807 10.3708C9.84857 10.8029 9.60583 11.389 9.60583 12C9.60583 12.6111 9.84857 13.1971 10.2807 13.6292C10.7127 14.0613 11.2988 14.304 11.9098 14.304C12.5209 14.304 13.1069 14.0613 13.539 13.6292C13.9711 13.1971 14.2138 12.6111 14.2138 12C14.2138 11.389 13.9711 10.8029 13.539 10.3708C13.1069 9.93876 12.5209 9.69602 11.9098 9.69602ZM8.21683 12C8.21683 11.0198 8.60623 10.0797 9.29936 9.38655C9.9925 8.69342 10.9326 8.30402 11.9128 8.30402C12.8931 8.30402 13.8332 8.69342 14.5263 9.38655C15.2194 10.0797 15.6088 11.0198 15.6088 12C15.6088 12.9803 15.2194 13.9204 14.5263 14.6135C13.8332 15.3066 12.8931 15.696 11.9128 15.696C10.9326 15.696 9.9925 15.3066 9.29936 14.6135C8.60623 13.9204 8.21683 12.9803 8.21683 12Z" fill="#052651"/>
</svg>
