<svg width="32" height="32" viewBox="0 0 32 32" fill="none" xmlns="http://www.w3.org/2000/svg">
<path d="M7.00195 4C6.2063 4 5.44324 4.31607 4.88063 4.87868C4.31802 5.44129 4.00195 6.20435 4.00195 7V20.994C4.00195 21.7896 4.31802 22.5527 4.88063 23.1153C5.44324 23.6779 6.2063 23.994 7.00195 23.994H12.002V26H8.98995C8.72474 26 8.47038 26.1054 8.28285 26.2929C8.09531 26.4804 7.98995 26.7348 7.98995 27C7.98995 27.2652 8.09531 27.5196 8.28285 27.7071C8.47038 27.8946 8.72474 28 8.98995 28H23C23.2652 28 23.5195 27.8946 23.7071 27.7071C23.8946 27.5196 24 27.2652 24 27C24 26.7348 23.8946 26.4804 23.7071 26.2929C23.5195 26.1054 23.2652 26 23 26H20V23.994H25.002C25.7976 23.994 26.5607 23.6779 27.1233 23.1153C27.6859 22.5527 28.002 21.7896 28.002 20.994V7C28.002 6.20435 27.6859 5.44129 27.1233 4.87868C26.5607 4.31607 25.7976 4 25.002 4H7.00195ZM18.002 23.994V26H14V23.994H18.002Z" fill="#6B7280"/>
</svg>
